/* XPM */
static char * nemiver_xpm[] = {
"32 32 196 2",
"  	c None",
". 	c #57A110",
"+ 	c #4E9A06",
"@ 	c #509D07",
"# 	c #72D015",
"$ 	c #62B80E",
"% 	c #73D216",
"& 	c #5C5E59",
"* 	c #5D5E5B",
"= 	c #585A55",
"- 	c #575A55",
"; 	c #5C5E5B",
"> 	c #5A5C59",
", 	c #5B5D5A",
"' 	c #656763",
") 	c #B7B9B5",
"! 	c #D8DAD6",
"~ 	c #EDEEEC",
"{ 	c #D7D8D4",
"] 	c #B5B8B2",
"^ 	c #686965",
"/ 	c #5A5D58",
"( 	c #5D5E5A",
"_ 	c #8B8E88",
": 	c #EDEEEB",
"< 	c #EBEDE9",
"[ 	c #E4E6E1",
"} 	c #DBDED8",
"| 	c #D6DAD3",
"1 	c #DADDD7",
"2 	c #E0E3DD",
"3 	c #E7E9E5",
"4 	c #8A8C85",
"5 	c #5B5E58",
"6 	c #737771",
"7 	c #EEF0ED",
"8 	c #E6E8E3",
"9 	c #E0E3DE",
"0 	c #E2E4DF",
"a 	c #DEE1DB",
"b 	c #D8DCD5",
"c 	c #D2D6CD",
"d 	c #CBCFC6",
"e 	c #D2D6CF",
"f 	c #737570",
"g 	c #5E625C",
"h 	c #C3C5C0",
"i 	c #DDE0DA",
"j 	c #E7EAE6",
"k 	c #E1E4DE",
"l 	c #D3D7CF",
"m 	c #CDD1C8",
"n 	c #C6CAC0",
"o 	c #D8DBD5",
"p 	c #BBBFB7",
"q 	c #5C5F5B",
"r 	c #ADD08C",
"s 	c #67A829",
"t 	c #63A623",
"u 	c #B1D291",
"v 	c #CBF0A6",
"w 	c #8BE237",
"x 	c #96E845",
"y 	c #96E647",
"z 	c #86D737",
"A 	c #77C828",
"B 	c #68B919",
"C 	c #61B212",
"D 	c #BFE09E",
"E 	c #C7EF9F",
"F 	c #96E945",
"G 	c #68B819",
"H 	c #B9DD96",
"I 	c #C2EE97",
"J 	c #B2EF76",
"K 	c #B2ED79",
"L 	c #B3DA8E",
"M 	c #BEEC90",
"N 	c #B3D791",
"O 	c #BEE897",
"P 	c #56971A",
"Q 	c #497823",
"R 	c #ADD784",
"S 	c #B9EB88",
"T 	c #8CE237",
"U 	c #A2BD8D",
"V 	c #919D8D",
"W 	c #82CE37",
"X 	c #4C7130",
"Y 	c #456A2A",
"Z 	c #5AA117",
"` 	c #334033",
" .	c #518B1D",
"..	c #A8D57D",
"+.	c #B4EA80",
"@.	c #BDF18A",
"#.	c #98AD88",
"$.	c #455F36",
"%.	c #344035",
"&.	c #323E34",
"*.	c #354731",
"=.	c #4C7C21",
"-.	c #A3D275",
";.	c #B0E97A",
">.	c #BAF184",
",.	c #BAED87",
"'.	c #4A6736",
").	c #374834",
"!.	c #334034",
"~.	c #446D26",
"{.	c #9CCF6B",
"].	c #ABE771",
"^.	c #91B078",
"/.	c #6F7374",
"(.	c #2E3436",
"_.	c #3B532D",
":.	c #98CD64",
"<.	c #A7E66A",
"[.	c #B2EF77",
"}.	c #B3ED7A",
"|.	c #3D5136",
"1.	c #2E3536",
"2.	c #374A2F",
"3.	c #91CA5A",
"4.	c #A3E562",
"5.	c #AEEE70",
"6.	c #8EB26E",
"7.	c #303836",
"8.	c #2F3736",
"9.	c #2F3636",
"0.	c #2E3636",
"a.	c #4D8220",
"b.	c #8CC752",
"c.	c #9FE35B",
"d.	c #91C066",
"e.	c #606A60",
"f.	c #4B6B36",
"g.	c #2F3735",
"h.	c #3C562C",
"i.	c #323F33",
"j.	c #528C1D",
"k.	c #86C44A",
"l.	c #7FA75D",
"m.	c #95CA63",
"n.	c #79BE37",
"o.	c #435E32",
"p.	c #3C562E",
"q.	c #589B19",
"r.	c #55961A",
"s.	c #A4EC5D",
"t.	c #A4E95F",
"u.	c #86D637",
"v.	c #77C728",
"w.	c #67B818",
"x.	c #A0EB57",
"y.	c #9FE857",
"z.	c #9DEA50",
"A.	c #9BE750",
"B.	c #99E949",
"C.	c #97E64A",
"D.	c #97E946",
"E.	c #95E546",
"F.	c #98E54B",
"G.	c #9EEB53",
"H.	c #9AE64F",
"I.	c #8AD73D",
"J.	c #78C72A",
"K.	c #68B91A",
"L.	c #65B419",
"M.	c #68B61D",
"N.	c #6CB722",
"O.	c #72BA2B",
"P.	c #72BC29",
"Q.	c #87CF42",
"R.	c #97DA56",
"S.	c #9DDE5D",
"T.	c #9ADA5D",
"U.	c #94D257",
"V.	c #89C74C",
"W.	c #80C042",
"X.	c #7CBD3D",
"Y.	c #77B938",
"Z.	c #70B42D",
"`.	c #62AA1F",
" +	c #478312",
".+	c #4E8F11",
"++	c #4F940F",
"@+	c #50960E",
"#+	c #4F980A",
"$+	c #4E9A08",
"%+	c #4E9907",
"&+	c #4D9509",
"*+	c #4C920B",
"=+	c #4B8E0D",
"-+	c #4A8910",
";+	c #457C15",
"                            . + + @                             ",
"                            + # # +                             ",
"                            + $ % +                             ",
"                            + # # +                             ",
"                            @ + + @                             ",
"                          & * = - ; >                           ",
"                      , ' ) ! ~ ~ { ] ^ /                       ",
"                    ( _ : < [ } | 1 2 3 4 5                     ",
"                    6 7 8 9 0 a b c d e 3 f                     ",
"                  g h 3 i [ j k 1 l m n o p q                   ",
"                  + r s + + + + + + + + t u +                   ",
"                  + v w x y z A B C C C C D +                   ",
"                  + E w F y z A G C C C C H +                   ",
"                  + I w J K z A G C C C C L +                   ",
"                  + M w N O z A G C P Q C R +                   ",
"                  + S T U V W X Y Z `  .C ..+                   ",
"                  + +.T @.#.$.%.&.*.=.C C -.+                   ",
"                  + ;.T >.,.'.).!.~.C C C {.+                   ",
"                  + ].T ^./.(.(.(.(.(._.C :.+                   ",
"                  + <.T [.}.|.1.(.2.C C C 3.+                   ",
"                  + 4.T 5.6.7.8.9.0.a.C C b.+                   ",
"                  + c.T d.e.f.8.g.h.i.j.C k.+                   ",
"                  + c.T l.m.n.o.p.q.r.Q C k.+                   ",
"                  + c.T s.t.u.v.w.C C C C k.+                   ",
"                  + c.T x.y.u.v.w.C C C C k.+                   ",
"                  + c.T z.A.u.v.w.C C C C k.+                   ",
"                  + c.T B.C.u.v.w.C C C C k.+                   ",
"                  + c.T D.E.u.v.w.C C C C k.+                   ",
"                  + c.F.G.H.I.J.K.L.M.N.O.k.+                   ",
"                  + P.Q.R.S.T.U.V.W.X.Y.Z.`.+                   ",
"                     +.+++@+#+$+%+&+*+=+-+;+                    ",
"                                                                "};
